<?xml version="1.0" standalone="no"?><!DOCTYPE svg PUBLIC "-//W3C//DTD SVG 1.1//EN" "http://www.w3.org/Graphics/SVG/1.1/DTD/svg11.dtd"><svg t="1608190149990" class="icon" viewBox="0 0 1024 1024" version="1.1" xmlns="http://www.w3.org/2000/svg" p-id="1749" xmlns:xlink="http://www.w3.org/1999/xlink" width="200" height="200"><defs><style type="text/css"></style></defs><path d="M720.567223 897.133714A433.737143 433.737143 0 0 1 510.281509 950.857143c-75.995429 0-147.419429-19.419429-209.700572-53.723429 101.156571-64 182.857143-160.585143 209.700572-273.700571 27.428571 113.152 109.129143 209.700571 210.285714 273.700571zM437.723794 81.152v277.138286c0 195.437714-107.995429 363.446857-261.156571 437.723428A436.406857 436.406857 0 0 1 73.143223 513.170286C73.143223 296.009143 230.839223 116.041143 437.723794 81.152zM950.857509 513.133714c0 107.995429-38.838857 206.299429-103.424 282.843429-153.161143-74.276571-261.156571-242.285714-261.156572-437.723429V81.115429C793.124937 115.968 950.857509 295.972571 950.857509 513.133714z" fill="" p-id="1750"></path></svg>