<?xml version="1.0" standalone="no"?><!DOCTYPE svg PUBLIC "-//W3C//DTD SVG 1.1//EN" "http://www.w3.org/Graphics/SVG/1.1/DTD/svg11.dtd"><svg t="1608190189492" class="icon" viewBox="0 0 1024 1024" version="1.1" xmlns="http://www.w3.org/2000/svg" p-id="3569" xmlns:xlink="http://www.w3.org/1999/xlink" width="200" height="200"><defs><style type="text/css"></style></defs><path d="M949.068915 391.459646l0.887206 29.868261c-66.024739-3.722788-114.416889-31.984459-142.541437-89.089038-21.564132-0.040932-39.470967-16.785292-40.500413-38.519292-1.091868-22.417569 16.269545-41.484833 38.687114-42.547025 22.419616-1.061169 41.491996 16.269545 42.549072 38.687114 0.685615 14.524808-6.42534 27.544333-17.597797 35.266202C855.940888 367.05891 895.48451 387.80542 949.068915 391.459646zM812.301995 391.286708c8.029884-0.372483 15.717983-1.738597 23.168676-3.926426l-27.851325-24.26566c-37.524638 0.103354-68.895113-29.286-70.707388-67.188238-1.849114-38.990013 28.260647-72.070432 67.252707-73.916477 38.96443-1.850138 72.077595 28.227901 73.919547 67.222007 0.99363 20.845771-7.209192 39.913035-20.947078 53.547567l21.224394 19.279089c19.34151-19.307741 30.825053-46.305629 29.42517-75.734892-2.636037-55.32505-49.623187-98.077759-104.987123-95.446839-55.363935 2.628874-98.080829 49.65491-95.484701 104.985076C709.983655 351.167988 756.971829 393.922744 812.301995 391.286708zM133.899104 565.241598l56.418964-84.140329c-13.155624-102.078887 55.980989-197.528795 158.470221-215.471446 105.396445-18.48705 205.801203 51.980885 224.290299 157.408029 18.523889 105.362676-51.949162 205.834972-157.340491 224.325092-56.354496 9.872858-111.106494-5.807263-152.866596-38.516222l-45.14213 64.454988c59.157331 45.927005 136.561235 67.867714 216.119199 53.892421 149.723-26.279526 249.819742-168.889525 223.542262-318.612525-26.246781-149.720953-168.927387-249.852488-318.652434-223.568868C189.052239 211.292264 89.024058 353.97287 115.269815 503.658008 119.065258 525.32447 125.523343 545.760918 133.899104 565.241598zM155.391604 888.50198c-21.155832-155.432025 35.20378-269.162276 146.165987-358.086561 24.879644 27.718295 62.777789 42.548048 102.080933 35.678594 60.658522-10.629081 101.258195-68.484767 90.599438-129.144312-10.631128-60.628846-68.490907-101.195773-129.117706-90.564645-58.743916 10.31902-98.249675 64.933895-90.938152 123.542734-145.548934 96.270601-205.79711 237.581-193.155185 418.573167L155.391604 888.500956z" p-id="3570"></path></svg>